<svg width="48" height="48" viewBox="0 0 48 48" fill="none" xmlns="http://www.w3.org/2000/svg">
<g clip-path="url(#clip0_201_872)">
<path d="M40.635 8.72112C37.5225 7.29272 34.2383 6.27325 30.864 5.68812C30.8335 5.68297 30.802 5.68742 30.7741 5.70085C30.7462 5.71428 30.7231 5.73603 30.708 5.76312C30.285 6.51312 29.817 7.49412 29.49 8.26212C25.8528 7.71014 22.1532 7.71014 18.516 8.26212C18.1513 7.40658 17.7386 6.57226 17.28 5.76312C17.2646 5.73633 17.2415 5.71482 17.2136 5.70144C17.1858 5.68805 17.1546 5.68341 17.124 5.68812C13.749 6.27012 10.464 7.29012 7.35302 8.72112C7.3264 8.73128 7.30413 8.75037 7.29002 8.77512C1.06802 18.0721 -0.638982 27.1411 0.198018 36.0961C0.201018 36.1381 0.228018 36.1801 0.261018 36.2071C3.88419 38.891 7.93679 40.9401 12.246 42.2671C12.2764 42.2767 12.3091 42.2764 12.3393 42.2661C12.3696 42.2559 12.3957 42.2362 12.414 42.2101C13.338 40.9501 14.16 39.6211 14.868 38.2231C14.8828 38.1943 14.8878 38.1615 14.8824 38.1296C14.877 38.0977 14.8614 38.0684 14.838 38.0461C14.8225 38.0315 14.8041 38.0202 14.784 38.0131C13.4915 37.5164 12.2397 36.9196 11.04 36.2281C11.0065 36.2091 10.9816 36.178 10.9704 36.1411C10.9592 36.1043 10.9627 36.0645 10.98 36.0301C10.9902 36.0078 11.0057 35.9882 11.025 35.9731C11.277 35.7841 11.529 35.5861 11.769 35.3881C11.7902 35.3711 11.8157 35.3601 11.8426 35.3564C11.8696 35.3527 11.897 35.3564 11.922 35.3671C19.779 38.9551 28.284 38.9551 36.045 35.3671C36.0709 35.3559 36.0994 35.3519 36.1274 35.3556C36.1554 35.3593 36.1819 35.3706 36.204 35.3881C36.444 35.5861 36.696 35.7841 36.948 35.9731C36.9684 35.988 36.9848 36.0078 36.9958 36.0306C37.0067 36.0534 37.0118 36.0786 37.0106 36.1038C37.0094 36.1291 37.002 36.1537 36.9889 36.1754C36.9759 36.1971 36.9578 36.2152 36.936 36.2281C35.7391 36.9259 34.4857 37.522 33.189 38.0101C33.1683 38.0176 33.1496 38.0295 33.134 38.0451C33.1184 38.0607 33.1065 38.0794 33.099 38.1001C33.0921 38.1202 33.0893 38.1414 33.0908 38.1625C33.0924 38.1837 33.0982 38.2043 33.108 38.2231C33.828 39.6181 34.653 40.9501 35.559 42.2101C35.5773 42.2362 35.6035 42.2559 35.6337 42.2661C35.6639 42.2764 35.6966 42.2767 35.727 42.2671C40.0434 40.9442 44.1026 38.8948 47.73 36.2071C47.7482 36.1945 47.7633 36.178 47.7742 36.1588C47.7851 36.1396 47.7915 36.1182 47.793 36.0961C48.795 25.7431 46.116 16.7491 40.695 8.77812C40.6896 8.76495 40.6814 8.75308 40.6711 8.74326C40.6607 8.73344 40.6484 8.7259 40.635 8.72112ZM16.041 30.6421C13.674 30.6421 11.727 28.4701 11.727 25.8061C11.727 23.1391 13.638 20.9671 16.041 20.9671C18.462 20.9671 20.391 23.1571 20.355 25.8061C20.355 28.4701 18.444 30.6421 16.041 30.6421ZM31.989 30.6421C29.625 30.6421 27.675 28.4701 27.675 25.8061C27.675 23.1391 29.586 20.9671 31.989 20.9671C34.41 20.9671 36.342 23.1571 36.303 25.8061C36.303 28.4701 34.41 30.6421 31.989 30.6421Z" fill="black"/>
</g>
<defs>
<clipPath id="clip0_201_872">
<rect width="48" height="48" fill="white"/>
</clipPath>
</defs>
</svg>
