<svg width="48" height="48" viewBox="0 0 48 48" fill="none" xmlns="http://www.w3.org/2000/svg">
<path d="M47.844 27.1562V34.9847L41.1015 37.4387L40.9455 37.5467L41.046 37.6247L47.946 35.1107L48 35.0402V27.0467L47.8905 26.9762L47.844 27.1562ZM47.2425 11.2337L41.1645 13.4537V21.2732L47.844 18.8432V11.0147L47.2425 11.2337ZM47.844 26.9147V19.0862L41.172 21.5162V29.3447L47.844 26.9147ZM40.938 29.4227V21.6032L34.344 24.0017V31.8302L40.938 29.4227ZM34.0695 39.9917V32.1722L27.4455 34.5782V42.4067L34.0695 39.9917ZM34.344 32.1182V39.8522L40.968 37.4387V29.7047L34.344 32.1107V32.1182ZM38.5245 35.8757C37.791 36.1472 37.2045 35.7257 37.2045 34.9532C37.2045 34.1717 37.791 33.3197 38.5245 33.0527C39.258 32.7887 39.852 33.2087 39.852 33.9827C39.852 34.7642 39.258 35.6162 38.5245 35.8742V35.8757ZM26.454 18.6317L27.18 18.3677L20.61 15.9677L13.9605 18.3902L14.172 18.4682L20.5395 20.7902L26.454 18.6317ZM41.016 21.3287V13.5002L34.344 15.9302V23.7587L41.016 21.3287ZM34.1175 23.8367V16.0082L27.516 18.4142V26.2337L34.1175 23.8367ZM27.2895 18.4922L20.6175 20.9222V28.7507L27.2895 26.3207V18.4922ZM13.812 26.3282L20.46 28.7507V20.9222L13.812 18.5087V26.3282ZM20.6805 15.7427L27.243 18.1322V10.3982L20.6805 8.00865V15.7427ZM41.016 5.43015L34.3815 7.84365V15.6722L41.016 13.2587V5.43015ZM33.8985 7.80465L27.447 5.46015L20.907 7.84365L27.3615 10.1882L33.8985 7.80465ZM30.726 9.21015L27.4845 10.3982V18.1322L34.119 15.7187V7.98465L30.726 9.21015ZM29.946 14.7662C29.2095 15.0407 28.6245 14.6177 28.6245 13.8437C28.6245 13.0622 29.211 12.2102 29.946 11.9462C30.6795 11.6807 31.2735 12.0947 31.2735 12.8762C31.2735 13.6562 30.6795 14.5007 29.946 14.7662ZM20.46 36.8207V28.9922L13.812 26.5697V34.3982L20.46 36.8207ZM27.36 34.3682V26.5397L20.6175 28.9922V36.8207L27.36 34.3682ZM27.516 34.3037L34.11 31.9052V24.0767L27.516 26.4752V34.3037ZM27.36 42.4382L20.6175 44.8907V37.0622H20.46V44.8907L13.812 42.4682V34.6397L13.71 34.5317L13.656 34.4057L6.984 31.9832V24.0932L7.0545 24.1172L13.6245 26.5067L13.656 26.3507L7.1325 23.9747L13.656 21.6092V21.3887L7.14 19.0142L13.656 16.6382V18.3887L13.812 18.2807V13.5392L20.328 15.9047L20.4465 15.7892L14.172 13.4987L13.9605 13.4282L20.4465 11.0687V10.8962L13.71 13.3502V13.3877L13.656 13.4282V16.4657L6.882 18.9362V18.9737L6.828 19.0142V27.0302L0.0465 29.4902V29.5307L0 29.5682V37.5527L0.0465 37.6307L6.852 40.1087L6.8685 40.0922L6.882 40.1162L13.68 42.5927L13.6965 42.5762L13.71 42.6002L20.508 45.0677L20.5395 45.0512L20.562 45.0677L27.4605 42.5597L27.516 42.4817L27.36 42.4382ZM6.984 19.1237L13.5 21.4922L6.984 23.8682V19.1237ZM6.7965 39.9227L0.156 37.5092V29.6807L6.7965 32.0942V39.9227ZM6.828 31.9382L0.3045 29.5697L6.828 27.1952V31.9457V31.9382ZM13.6245 42.3977L6.984 39.9842V32.1557L13.6245 34.5782V42.3977ZM47.5785 10.8677L41.1645 8.53215V13.2047L47.5785 10.8677ZM40.7745 5.29065L34.296 2.93115L27.7575 5.30565L34.2495 7.67415L40.7745 5.29065Z" fill="black"/>
</svg>
