<svg width="48" height="48" viewBox="0 0 48 48" fill="none" xmlns="http://www.w3.org/2000/svg">
<path d="M9.53128 37.5H43.5V1.5H9.43753C7.93059 1.50485 6.48676 2.10562 5.42119 3.17119C4.35562 4.23676 3.75485 5.68059 3.75 7.18753V40.3359H3.75103C3.75103 40.3501 3.75 40.3641 3.75 40.3784C3.75 43.6972 6.35456 46.5003 9.43753 46.5003H43.5V43.5H9.43753C8.031 43.5 6.75 42.0121 6.75 40.3781C6.75 38.8181 8.02359 37.5 9.53128 37.5ZM33.75 4.53122V20.7327L29.2125 16.7493L24.75 20.7094V4.53122H33.75ZM21.75 4.5V24.75H24.7163L29.2234 20.7507L33.7786 24.75H36.75V4.5H40.5V34.5H12.7575L12.75 4.5H21.75ZM9.43753 4.5H9.75L9.75712 34.5H9.53091C8.55542 34.5002 7.59688 34.7549 6.75 35.239V7.21097C6.74771 6.49533 7.02937 5.808 7.53321 5.29977C8.03704 4.79154 8.7219 4.50392 9.43753 4.5Z" fill="black"/>
</svg>
