<svg width="40" height="32" viewBox="0 0 40 32" fill="none" xmlns="http://www.w3.org/2000/svg">
<path fill-rule="evenodd" clip-rule="evenodd" d="M24.4883 2.18691C21.4407 1.73602 18.4207 1.7403 15.4286 2.19976C15.1423 1.51054 14.7176 0.64415 14.3589 0C11.4613 0.502471 8.68959 1.38816 6.10032 2.60556C0.877737 10.5156 -0.538019 18.2291 0.169861 25.8331C3.63375 28.4257 6.99068 30.0007 10.291 31.0313C11.1058 29.9073 11.8326 28.7124 12.4586 27.4531C11.2663 26.999 10.1242 26.4386 9.04512 25.788C9.3314 25.5754 9.61143 25.3532 9.88197 25.1245C11.1373 25.713 12.4134 26.1893 13.7018 26.5533C15.0849 26.9441 22.3574 9.34329 24.4883 2.18691ZM9.75925 17.0567C9.75925 19.308 11.3795 21.1567 13.3553 21.1567C15.3657 21.1567 16.9545 19.308 16.9513 17.0567C16.9859 14.8023 15.3657 12.9536 13.3553 12.9536C11.3449 12.9536 9.75925 14.8055 9.75925 17.0567Z" fill="url(#paint0_linear_201_1354)"/>
<path fill-rule="evenodd" clip-rule="evenodd" d="M16.5517 27.2414C21.1652 27.9765 25.7207 27.2108 30.1179 25.1245C30.3916 25.3532 30.6716 25.5754 30.9547 25.788C29.8725 26.4418 28.7273 27.0022 27.5349 27.4563C28.161 28.7124 28.8846 29.9105 29.7026 31.0345C33.0061 30.0039 36.3661 28.429 39.83 25.8331C40.6606 17.0181 38.4111 9.37542 33.8838 2.59913C31.8495 1.64518 29.7046 0.896014 27.4749 0.37501C25.7965 5.18182 22.1286 13.7182 19.4332 19.9913C18.0107 23.3021 16.0002 27.1535 16.5517 27.2414ZM23.0485 17.0567C23.0485 19.308 24.6688 21.1567 26.6446 21.1567C28.6549 21.1567 30.2406 19.308 30.2406 17.0567C30.2752 14.8023 28.6549 12.9536 26.6446 12.9536C24.6342 12.9536 23.0485 14.8055 23.0485 17.0567Z" fill="url(#paint1_linear_201_1354)"/>
<defs>
<linearGradient id="paint0_linear_201_1354" x1="33.2756" y1="25.6897" x2="7.24126" y2="15.0001" gradientUnits="userSpaceOnUse">
<stop stop-color="#FFD43B"/>
<stop offset="0.53125" stop-color="#FFE871"/>
<stop offset="0.589043" stop-color="#306998"/>
<stop offset="1" stop-color="#4C8CBF"/>
</linearGradient>
<linearGradient id="paint1_linear_201_1354" x1="33.2756" y1="25.6897" x2="7.24126" y2="15.0001" gradientUnits="userSpaceOnUse">
<stop stop-color="#FFD43B"/>
<stop offset="0.53125" stop-color="#FFE871"/>
<stop offset="0.589043" stop-color="#306998"/>
<stop offset="1" stop-color="#4C8CBF"/>
</linearGradient>
</defs>
</svg>
