<svg width="146" height="44" viewBox="0 0 146 44" fill="none" xmlns="http://www.w3.org/2000/svg">
<path d="M7.29289 43.7071C7.68342 44.0976 8.31658 44.0976 8.70711 43.7071L15.0711 37.3431C15.4616 36.9526 15.4616 36.3195 15.0711 35.9289C14.6805 35.5384 14.0474 35.5384 13.6569 35.9289L8 41.5858L2.34315 35.9289C1.95262 35.5384 1.31946 35.5384 0.928932 35.9289C0.538408 36.3195 0.538408 36.9526 0.928932 37.3431L7.29289 43.7071ZM9.00689 42.4888C9.02189 41.9367 8.58649 41.477 8.03441 41.462C7.48233 41.447 7.02262 41.8824 7.00763 42.4345L9.00689 42.4888ZM9.36331 34.1491C9.0739 34.6195 9.22061 35.2355 9.69099 35.5249C10.1614 35.8143 10.7773 35.6676 11.0667 35.1972L9.36331 34.1491ZM11.5955 34.4017C11.9171 33.9527 11.8138 33.328 11.3648 33.0064C10.9157 32.6849 10.2911 32.7882 9.9695 33.2372L11.5955 34.4017ZM16.4655 27.6336C15.9846 27.9051 15.8147 28.515 16.0862 28.996C16.3577 29.4769 16.9677 29.6467 17.4486 29.3753L16.4655 27.6336ZM18.2932 28.9188C18.7837 28.665 18.9756 28.0616 18.7218 27.5711C18.4679 27.0806 17.8645 26.8887 17.374 27.1426L18.2932 28.9188ZM25.2319 24.1646C24.6995 24.3115 24.387 24.8622 24.534 25.3946C24.6809 25.927 25.2316 26.2395 25.764 26.0925L25.2319 24.1646ZM26.7205 25.8376C27.2554 25.7001 27.5775 25.1549 27.4399 24.62C27.3023 24.0852 26.7572 23.7631 26.2223 23.9007L26.7205 25.8376ZM34.4046 22.2911C33.8582 22.3715 33.4804 22.8797 33.5609 23.4261C33.6413 23.9725 34.1495 24.3502 34.6959 24.2697L34.4046 22.2911ZM35.6798 24.1297C36.2269 24.0544 36.6094 23.5498 36.5341 23.0027C36.4588 22.4556 35.9543 22.0731 35.4071 22.1483L35.6798 24.1297ZM43.6178 21.2855C43.0672 21.3282 42.6554 21.8091 42.698 22.3598C42.7407 22.9104 43.2216 23.3222 43.7722 23.2796L43.6178 21.2855ZM44.802 23.2028C45.3529 23.1633 45.7675 22.6847 45.728 22.1339C45.6885 21.583 45.2099 21.1684 44.6591 21.2079L44.802 23.2028ZM52.8783 20.7754C52.3264 20.7955 51.8952 21.2591 51.9152 21.8111C51.9353 22.363 52.3989 22.7942 52.9508 22.7741L52.8783 20.7754ZM53.9674 22.7389C54.5194 22.7207 54.9522 22.2585 54.934 21.7065C54.9158 21.1546 54.4536 20.7218 53.9016 20.74L53.9674 22.7389ZM62.1284 20.5599C61.5762 20.5669 61.1342 21.0203 61.1412 21.5725C61.1482 22.1248 61.6016 22.5668 62.1538 22.5598L62.1284 20.5599ZM63.1834 22.5477C63.7356 22.5417 64.1785 22.0891 64.1724 21.5369C64.1664 20.9846 63.7139 20.5418 63.1616 20.5478L63.1834 22.5477ZM71.3718 20.5027C70.8195 20.5035 70.3725 20.952 70.3734 21.5042C70.3742 22.0565 70.8227 22.5035 71.3749 22.5027L71.3718 20.5027ZM72.3985 22.5014C72.9508 22.5008 73.398 22.0527 73.3975 21.5004C73.3969 20.9481 72.9487 20.5008 72.3965 20.5014L72.3985 22.5014ZM80.6015 20.4986C80.0492 20.4992 79.602 20.9473 79.6025 21.4996C79.6031 22.0519 80.0512 22.4992 80.6035 22.4986L80.6015 20.4986ZM81.6282 22.4973C82.1805 22.4965 82.6275 22.048 82.6266 21.4958C82.6258 20.9435 82.1773 20.4965 81.6251 20.4973L81.6282 22.4973ZM89.8166 20.4523C89.2644 20.4583 88.8215 20.9109 88.8275 21.4631C88.8335 22.0154 89.2861 22.4582 89.8383 22.4522L89.8166 20.4523ZM90.8715 22.4401C91.4238 22.4331 91.8658 21.9797 91.8588 21.4275C91.8518 20.8752 91.3984 20.4332 90.8462 20.4402L90.8715 22.4401ZM99.0326 20.2611C98.4806 20.2793 98.0478 20.7415 98.066 21.2935C98.0842 21.8454 98.5464 22.2782 99.0984 22.26L99.0326 20.2611ZM100.122 22.2246C100.674 22.2045 101.105 21.7409 101.085 21.1889C101.065 20.637 100.601 20.2058 100.049 20.2259L100.122 22.2246ZM108.198 19.7972C107.647 19.8367 107.233 20.3153 107.272 20.8661C107.311 21.417 107.79 21.8316 108.341 21.7921L108.198 19.7972ZM109.382 21.7145C109.933 21.6718 110.345 21.1909 110.302 20.6402C110.259 20.0896 109.778 19.6778 109.228 19.7205L109.382 21.7145ZM117.32 18.8703C116.773 18.9456 116.391 19.4502 116.466 19.9973C116.541 20.5444 117.046 20.9269 117.593 20.8517L117.32 18.8703ZM118.595 20.7089C119.142 20.6285 119.52 20.1203 119.439 19.5739C119.359 19.0275 118.85 18.6498 118.304 18.7303L118.595 20.7089ZM126.279 17.1624C125.745 17.2999 125.423 17.8451 125.56 18.38C125.698 18.9148 126.243 19.2369 126.778 19.0993L126.279 17.1624ZM127.768 18.8354C128.3 18.6885 128.613 18.1378 128.466 17.6054C128.319 17.073 127.768 16.7605 127.236 16.9075L127.768 18.8354ZM134.707 14.0812C134.216 14.335 134.024 14.9384 134.278 15.4289C134.532 15.9194 135.135 16.1113 135.626 15.8574L134.707 14.0812ZM136.534 15.3664C137.015 15.0949 137.185 14.485 136.914 14.004C136.642 13.5231 136.032 13.3533 135.551 13.6247L136.534 15.3664ZM141.404 8.59832C141.083 9.04734 141.186 9.67202 141.635 9.99358C142.084 10.3151 142.709 10.2118 143.03 9.76279L141.404 8.59832ZM143.637 8.85087C143.926 8.38048 143.779 7.76455 143.309 7.47514C142.839 7.18573 142.223 7.33244 141.933 7.80283L143.637 8.85087ZM143.993 0.511213C143.978 1.06329 144.414 1.523 144.966 1.53799C145.518 1.55299 145.977 1.11759 145.992 0.565514L143.993 0.511213ZM9 43C9 42.828 9.00231 42.6576 9.00689 42.4888L7.00763 42.4345C7.00255 42.6216 7 42.8101 7 43L9 43ZM11.0667 35.1972C11.2334 34.9263 11.4097 34.6612 11.5955 34.4017L9.9695 33.2372C9.75685 33.5342 9.55468 33.8381 9.36331 34.1491L11.0667 35.1972ZM17.4486 29.3753C17.724 29.2198 18.0056 29.0677 18.2932 28.9188L17.374 27.1426C17.0656 27.3022 16.7627 27.4658 16.4655 27.6336L17.4486 29.3753ZM25.764 26.0925C26.0793 26.0055 26.3981 25.9206 26.7205 25.8376L26.2223 23.9007C25.8889 23.9864 25.5588 24.0744 25.2319 24.1646L25.764 26.0925ZM34.6959 24.2697C35.0217 24.2218 35.3497 24.1751 35.6798 24.1297L35.4071 22.1483C35.071 22.1946 34.7367 22.2422 34.4046 22.2911L34.6959 24.2697ZM43.7722 23.2796C44.114 23.2531 44.4573 23.2275 44.802 23.2028L44.6591 21.2079C44.3106 21.2329 43.9635 21.2587 43.6178 21.2855L43.7722 23.2796ZM52.9508 22.7741C53.2888 22.7619 53.6277 22.7501 53.9674 22.7389L53.9016 20.74C53.5597 20.7513 53.2186 20.7631 52.8783 20.7754L52.9508 22.7741ZM62.1538 22.5598C62.4965 22.5554 62.8397 22.5514 63.1834 22.5477L63.1616 20.5478C62.8168 20.5515 62.4724 20.5556 62.1284 20.5599L62.1538 22.5598ZM71.3749 22.5027C71.7159 22.5021 72.0571 22.5017 72.3985 22.5014L72.3965 20.5014C72.0548 20.5017 71.7132 20.5021 71.3718 20.5027L71.3749 22.5027ZM80.6035 22.4986C80.9452 22.4983 81.2868 22.4979 81.6282 22.4973L81.6251 20.4973C81.2841 20.4979 80.9429 20.4983 80.6015 20.4986L80.6035 22.4986ZM89.8383 22.4522C90.1832 22.4485 90.5276 22.4444 90.8715 22.4401L90.8462 20.4402C90.5035 20.4446 90.1603 20.4486 89.8166 20.4523L89.8383 22.4522ZM99.0984 22.26C99.4403 22.2487 99.7814 22.2369 100.122 22.2246L100.049 20.2259C99.7112 20.2381 99.3723 20.2499 99.0326 20.2611L99.0984 22.26ZM108.341 21.7921C108.689 21.7671 109.036 21.7413 109.382 21.7145L109.228 19.7205C108.886 19.7469 108.543 19.7725 108.198 19.7972L108.341 21.7921ZM117.593 20.8517C117.929 20.8054 118.263 20.7578 118.595 20.7089L118.304 18.7303C117.978 18.7782 117.65 18.8249 117.32 18.8703L117.593 20.8517ZM126.778 19.0993C127.111 19.0136 127.441 18.9256 127.768 18.8354L127.236 16.9075C126.921 16.9945 126.602 17.0794 126.279 17.1624L126.778 19.0993ZM135.626 15.8574C135.934 15.6978 136.237 15.5342 136.534 15.3664L135.551 13.6247C135.276 13.7802 134.994 13.9323 134.707 14.0812L135.626 15.8574ZM143.03 9.76279C143.243 9.46585 143.445 9.16192 143.637 8.85087L141.933 7.80283C141.767 8.07367 141.59 8.33879 141.404 8.59832L143.03 9.76279ZM145.992 0.565514C145.997 0.378415 146 0.189913 146 0H144C144 0.172034 143.998 0.342432 143.993 0.511213L145.992 0.565514Z" fill="#25A4FF"/>
</svg>
