<svg width="512" height="512" viewBox="0 0 512 512" fill="none" xmlns="http://www.w3.org/2000/svg">
<g opacity="0.25">
<path d="M256 42.6665C373.824 42.6665 469.333 138.176 469.333 256C469.333 373.824 373.824 469.333 256 469.333C221.488 469.379 187.483 461.017 156.928 444.971L65.408 468.8C62.35 469.596 59.137 469.58 56.0873 468.752C53.0376 467.924 50.2572 466.314 48.0217 464.08C45.7861 461.847 44.173 459.068 43.3423 456.019C42.5115 452.97 42.4919 449.757 43.2854 446.698L67.0934 355.2C51.0038 324.612 42.6192 290.561 42.6667 256C42.6667 138.176 138.176 42.6665 256 42.6665ZM256 330.667C250.342 330.667 244.916 332.914 240.915 336.915C236.914 340.916 234.667 346.342 234.667 352C234.667 357.658 236.914 363.084 240.915 367.085C244.916 371.086 250.342 373.333 256 373.333C261.658 373.333 267.084 371.086 271.085 367.085C275.086 363.084 277.333 357.658 277.333 352C277.333 346.342 275.086 340.916 271.085 336.915C267.084 332.914 261.658 330.667 256 330.667ZM256 144C240.441 144 225.519 150.181 214.516 161.183C203.514 172.185 197.333 187.107 197.333 202.667C197.335 206.72 198.875 210.623 201.642 213.585C204.41 216.547 208.198 218.348 212.243 218.624C216.287 218.901 220.286 217.632 223.43 215.073C226.575 212.515 228.631 208.859 229.184 204.843L229.483 199.936C230.203 193.153 233.495 186.904 238.682 182.475C243.869 178.045 250.556 175.771 257.368 176.121C264.179 176.471 270.598 179.418 275.304 184.355C280.01 189.293 282.645 195.846 282.667 202.667C282.667 214.165 279.787 219.84 268.907 231.083L262.421 237.696C246.336 254.421 240 266.432 240 288C240 292.243 241.686 296.313 244.686 299.314C247.687 302.314 251.757 304 256 304C260.244 304 264.313 302.314 267.314 299.314C270.314 296.313 272 292.243 272 288C272 276.501 274.88 270.827 285.76 259.584L292.245 252.971C308.331 236.245 314.667 224.235 314.667 202.667C314.667 187.107 308.486 172.185 297.484 161.183C286.482 150.181 271.559 144 256 144Z" fill="black"/>
</g>
</svg>
