<svg width="512" height="512" viewBox="0 0 512 512" fill="none" xmlns="http://www.w3.org/2000/svg">
<g>
<path d="M479.6 399.716L398.516 318.632L336.148 292.865C356.915 263.333 368.04 228.102 368 192C368 94.953 289.047 16 192 16C94.953 16 16 94.953 16 192C16 289.047 94.953 368 192 368C228.416 368.042 263.939 356.724 293.619 335.623L319.319 397.823L400.4 478.911C405.6 484.111 411.773 488.237 418.568 491.051C425.362 493.866 432.644 495.314 439.998 495.315C447.352 495.315 454.635 493.867 461.429 491.052C468.224 488.238 474.397 484.114 479.598 478.914C484.798 473.714 488.923 467.54 491.738 460.746C494.552 453.952 496.001 446.669 496.001 439.315C496.001 431.961 494.553 424.679 491.739 417.884C488.925 411.09 484.8 404.916 479.6 399.716ZM48 192C48 112.6 112.6 48 192 48C271.4 48 336 112.6 336 192C336 271.4 271.4 336 192 336C112.6 336 48 271.4 48 192ZM456.971 456.284C452.466 460.778 446.363 463.302 440 463.302C433.637 463.302 427.534 460.778 423.029 456.284L346.457 379.712L322.563 321.877L380.4 345.771L456.973 422.343C461.467 426.848 463.99 432.951 463.99 439.314C463.989 445.677 461.465 451.78 456.971 456.284Z" fill="black"/>
</g>
</svg>
