<svg width="512" height="512" viewBox="0 0 512 512" fill="none" xmlns="http://www.w3.org/2000/svg">
<g>
<path d="M405.547 323.477V170.603C405.44 136.341 382.571 85.3334 320 85.3334V42.6667L234.667 106.667L320 170.667V128C359.019 128 362.688 160.832 362.88 170.667V323.477C332.16 332.736 309.547 360.96 309.547 394.667C309.547 435.84 343.04 469.333 384.213 469.333C425.387 469.333 458.88 435.84 458.88 394.667C458.88 360.96 436.267 332.736 405.547 323.477ZM384.213 426.667C366.571 426.667 352.213 412.309 352.213 394.667C352.213 377.024 366.571 362.667 384.213 362.667C401.856 362.667 416.213 377.024 416.213 394.667C416.213 412.309 401.856 426.667 384.213 426.667ZM202.667 117.333C202.667 76.1601 169.173 42.6667 128 42.6667C86.8266 42.6667 53.3333 76.1601 53.3333 117.333C53.3333 151.04 75.9466 179.264 106.667 188.523V323.477C75.9466 332.736 53.3333 360.96 53.3333 394.667C53.3333 435.84 86.8266 469.333 128 469.333C169.173 469.333 202.667 435.84 202.667 394.667C202.667 360.96 180.053 332.736 149.333 323.477V188.523C180.053 179.264 202.667 151.04 202.667 117.333ZM96 117.333C96 99.6908 110.357 85.3334 128 85.3334C145.643 85.3334 160 99.6908 160 117.333C160 134.976 145.643 149.333 128 149.333C110.357 149.333 96 134.976 96 117.333ZM160 394.667C160 412.309 145.643 426.667 128 426.667C110.357 426.667 96 412.309 96 394.667C96 377.024 110.357 362.667 128 362.667C145.643 362.667 160 377.024 160 394.667Z" fill="black"/>
</g>
</svg>
