<svg width="512" height="512" viewBox="0 0 512 512" fill="none" xmlns="http://www.w3.org/2000/svg">
<g opacity="0.05">
<path d="M467.797 247.616C463.488 237.205 454.251 234.709 448 234.112V170.667C448 147.136 428.864 128 405.333 128H277.333V98.3466C283.84 92.5013 288 84.096 288 74.6666C288 66.1797 284.629 58.0404 278.627 52.0392C272.626 46.038 264.487 42.6666 256 42.6666C247.513 42.6666 239.374 46.038 233.373 52.0392C227.371 58.0404 224 66.1797 224 74.6666C224 84.096 228.16 92.5013 234.667 98.3466V128H106.667C83.136 128 64 147.136 64 170.667V234.603L62.2507 234.731C56.8741 235.119 51.8438 237.528 48.171 241.474C44.4983 245.42 42.4555 250.609 42.4533 256V298.667C42.4533 304.325 44.701 309.751 48.7017 313.752C52.7025 317.752 58.1287 320 63.7867 320H64V426.667C64 450.197 83.136 469.333 106.667 469.333H405.333C428.864 469.333 448 450.197 448 426.667V320C453.658 320 459.084 317.752 463.085 313.752C467.086 309.751 469.333 304.325 469.333 298.667V257.323C469.579 254.012 469.053 250.689 467.797 247.616ZM106.667 426.667V170.667H405.333L405.355 255.915L405.333 256V298.667L405.355 298.773L405.376 426.667H106.667Z" fill="black"/>
<path d="M181.333 298.667C199.006 298.667 213.333 279.564 213.333 256C213.333 232.436 199.006 213.333 181.333 213.333C163.66 213.333 149.333 232.436 149.333 256C149.333 279.564 163.66 298.667 181.333 298.667Z" fill="black"/>
<path d="M330.667 298.667C348.34 298.667 362.667 279.564 362.667 256C362.667 232.436 348.34 213.333 330.667 213.333C312.994 213.333 298.667 232.436 298.667 256C298.667 279.564 312.994 298.667 330.667 298.667Z" fill="black"/>
<path d="M170.667 341.333H341.333V384H170.667V341.333Z" fill="black"/>
</g>
</svg>
