<svg width="1113" height="195" viewBox="0 0 1113 195" fill="none" xmlns="http://www.w3.org/2000/svg">
<path d="M0 172.905L11.5938 147.571C23.1875 122.237 46.375 71.5695 69.5625 37.934C92.75 4.29847 115.938 -12.3046 139.125 12.6C162.312 37.5046 185.5 103.917 208.688 132.257C231.875 160.596 255.062 150.863 278.25 145.854C301.438 140.844 324.625 140.558 347.813 131.541C371 122.524 394.188 104.776 417.375 97.476C440.563 90.1764 463.75 93.3253 486.938 97.476C510.125 101.627 533.312 106.779 556.5 115.797C579.688 124.814 602.875 137.696 626.062 139.27C649.25 140.844 672.438 131.112 695.625 132.113C718.813 133.115 742 144.852 765.188 136.837C788.375 128.821 811.563 101.054 834.75 92.1802C857.938 83.3062 881.125 93.3253 904.313 91.894C927.5 90.4627 950.688 77.581 973.875 86.1688C997.063 94.7566 1020.25 124.814 1043.44 141.703C1066.62 158.592 1089.81 162.314 1101.41 164.175L1113 166.035V194.375H1101.41C1089.81 194.375 1066.62 194.375 1043.44 194.375C1020.25 194.375 997.063 194.375 973.875 194.375C950.688 194.375 927.5 194.375 904.313 194.375C881.125 194.375 857.938 194.375 834.75 194.375C811.563 194.375 788.375 194.375 765.188 194.375C742 194.375 718.813 194.375 695.625 194.375C672.438 194.375 649.25 194.375 626.062 194.375C602.875 194.375 579.688 194.375 556.5 194.375C533.312 194.375 510.125 194.375 486.938 194.375C463.75 194.375 440.563 194.375 417.375 194.375C394.188 194.375 371 194.375 347.813 194.375C324.625 194.375 301.438 194.375 278.25 194.375C255.062 194.375 231.875 194.375 208.688 194.375C185.5 194.375 162.312 194.375 139.125 194.375C115.938 194.375 92.75 194.375 69.5625 194.375C46.375 194.375 23.1875 194.375 11.5938 194.375H0V172.905Z" fill="#C6E2E1"/>
</svg>
